<?xml version="1.0" encoding="UTF-8" standalone="no"?>
<!-- Created with Inkscape (http://www.inkscape.org/) -->

<svg
   width="48"
   height="48"
   viewBox="0 0 135.46666 135.46666"
   version="1.1"
   id="svg1"
   inkscape:version="1.4.2 (f4327f4, 2025-05-13)"
   sodipodi:docname="NP-IS.svg"
   xml:space="preserve"
   inkscape:export-filename="512\NP-512-WT.svg"
   inkscape:export-xdpi="96"
   inkscape:export-ydpi="96"
   xmlns:inkscape="http://www.inkscape.org/namespaces/inkscape"
   xmlns:sodipodi="http://sodipodi.sourceforge.net/DTD/sodipodi-0.dtd"
   xmlns="http://www.w3.org/2000/svg"
   xmlns:svg="http://www.w3.org/2000/svg"><sodipodi:namedview
     id="namedview1"
     pagecolor="#ffffff"
     bordercolor="#000000"
     borderopacity="0.25"
     inkscape:showpageshadow="2"
     inkscape:pageopacity="0.0"
     inkscape:pagecheckerboard="0"
     inkscape:deskcolor="#d1d1d1"
     inkscape:document-units="mm"
     inkscape:zoom="0.50000001"
     inkscape:cx="216.99999"
     inkscape:cy="18.999999"
     inkscape:window-width="1920"
     inkscape:window-height="991"
     inkscape:window-x="-9"
     inkscape:window-y="-9"
     inkscape:window-maximized="1"
     inkscape:current-layer="NP"
     showgrid="true"><inkscape:grid
       id="grid1"
       units="mm"
       originx="0"
       originy="0"
       spacingx="0.99999995"
       spacingy="0.99999995"
       empcolor="#0099e5"
       empopacity="0.30196078"
       color="#0099e5"
       opacity="0.14901961"
       empspacing="5"
       enabled="true"
       visible="true" /><inkscape:page
       x="0"
       y="0"
       width="135.46666"
       height="135.46666"
       id="page2"
       margin="0"
       bleed="0" /></sodipodi:namedview><defs
     id="defs1" /><rect
     style="opacity:1;fill:#000000;fill-opacity:1;fill-rule:evenodd;stroke:#22d3ee;stroke-width:0;stroke-dasharray:none"
     id="BG"
     width="212.159"
     height="188.2112"
     x="-31.805073"
     y="-32.553429"
     inkscape:label="BG"><title
       id="title2">BG</title></rect><g
     inkscape:groupmode="layer"
     id="NP"
     inkscape:label="NP"><title
       id="title1">NP</title><path
       id="path1"
       style="opacity:1;fill:#ffffff;fill-opacity:1;stroke:#000000;stroke-width:0"
       d="m 15.47695,25.248028 -10.2450825,0.0071 0.00162,84.951812 9.9916475,0.0117 0.02539,-73.012404 44.970123,35.098899 -7.41e-4,-12.073426 z m 16.689767,0.009 13.042679,9.983735 59.989814,-0.07016 c 0,0 14.98621,0.01695 15.03937,20.029022 0.0538,19.857713 -14.9904,20.021234 -14.9904,20.021234 l -15.02095,-0.0048 v 10.000346 l 15.00067,4.48e-4 c 0,0 25.00661,0.0042 25.0069,-30.003062 -0.0149,-29.969468 -25.01672,-29.94015 -25.01672,-29.94015 z m 73.028213,24.927864 -34.966351,0.02447 -0.0037,50.008168 -44.996304,-35.009953 0.02235,11.979681 44.964696,33.027242 10.00446,-0.0468 0.0096,-49.958827 24.999359,0.0011 c 0,0 4.99888,0.0045 4.99641,-4.999062 0.004,-5.002095 -5.03057,-5.02603 -5.03057,-5.02603 z"
       sodipodi:nodetypes="ccccccccccccccccccccccccccccccc"
       inkscape:label="NP"><title
         id="title3">NP</title></path></g></svg>
